<svg width="126" height="26" viewBox="0 0 126 26" fill="none" xmlns="http://www.w3.org/2000/svg">
<path d="M21.08 25.75H15.608L6.456 11.894V25.75H0.984V3.286H6.456L15.608 17.206V3.286H21.08V25.75ZM35.6065 25.75L32.1825 20.79L29.3025 25.75H23.3825L29.2705 16.63L23.2225 7.894H29.3665L32.7905 12.822L35.6705 7.894H41.5905L35.6065 16.886L41.7505 25.75H35.6065ZM42.931 14.486C42.931 12.2673 43.411 10.294 44.371 8.566C45.331 6.81667 46.6643 5.462 48.371 4.502C50.099 3.52067 52.051 3.03 54.227 3.03C56.8937 3.03 59.1763 3.734 61.075 5.142C62.9737 6.55 64.243 8.47 64.883 10.902H58.867C58.419 9.96333 57.779 9.24867 56.947 8.758C56.1363 8.26733 55.2083 8.022 54.163 8.022C52.4777 8.022 51.1123 8.60867 50.067 9.782C49.0217 10.9553 48.499 12.5233 48.499 14.486C48.499 16.4487 49.0217 18.0167 50.067 19.19C51.1123 20.3633 52.4777 20.95 54.163 20.95C55.2083 20.95 56.1363 20.7047 56.947 20.214C57.779 19.7233 58.419 19.0087 58.867 18.07H64.883C64.243 20.502 62.9737 22.422 61.075 23.83C59.1763 25.2167 56.8937 25.91 54.227 25.91C52.051 25.91 50.099 25.43 48.371 24.47C46.6643 23.4887 45.331 22.134 44.371 20.406C43.411 18.678 42.931 16.7047 42.931 14.486ZM73.706 10.87C74.346 9.88867 75.146 9.12067 76.106 8.566C77.066 7.99 78.1327 7.702 79.306 7.702V13.494H77.802C76.4367 13.494 75.4127 13.7927 74.73 14.39C74.0473 14.966 73.706 15.99 73.706 17.462V25.75H68.234V7.894H73.706V10.87ZM80.8335 16.79C80.8335 14.9553 81.1748 13.3447 81.8575 11.958C82.5615 10.5713 83.5108 9.50467 84.7055 8.758C85.9002 8.01133 87.2335 7.638 88.7055 7.638C89.9642 7.638 91.0628 7.894 92.0015 8.406C92.9615 8.918 93.6975 9.59 94.2095 10.422V7.894H99.6815V25.75H94.2095V23.222C93.6762 24.054 92.9295 24.726 91.9695 25.238C91.0308 25.75 89.9322 26.006 88.6735 26.006C87.2228 26.006 85.9002 25.6327 84.7055 24.886C83.5108 24.118 82.5615 23.0407 81.8575 21.654C81.1748 20.246 80.8335 18.6247 80.8335 16.79ZM94.2095 16.822C94.2095 15.4567 93.8255 14.3793 93.0575 13.59C92.3108 12.8007 91.3935 12.406 90.3055 12.406C89.2175 12.406 88.2895 12.8007 87.5215 13.59C86.7748 14.358 86.4015 15.4247 86.4015 16.79C86.4015 18.1553 86.7748 19.2433 87.5215 20.054C88.2895 20.8433 89.2175 21.238 90.3055 21.238C91.3935 21.238 92.3108 20.8433 93.0575 20.054C93.8255 19.2647 94.2095 18.1873 94.2095 16.822ZM112.6 12.438H109.656V25.75H104.184V12.438H102.2V7.894H104.184V7.382C104.184 5.18467 104.814 3.52067 106.072 2.39C107.331 1.238 109.176 0.661999 111.608 0.661999C112.014 0.661999 112.312 0.672665 112.504 0.693998V5.334C111.459 5.27 110.723 5.41933 110.296 5.782C109.87 6.14467 109.656 6.79533 109.656 7.734V7.894H112.6V12.438ZM125.124 21.11V25.75H122.34C120.356 25.75 118.809 25.27 117.7 24.31C116.59 23.3287 116.036 21.7393 116.036 19.542V12.438H113.86V7.894H116.036V3.542H121.508V7.894H125.092V12.438H121.508V19.606C121.508 20.1393 121.636 20.5233 121.892 20.758C122.148 20.9927 122.574 21.11 123.172 21.11H125.124Z" fill="white"/>
</svg>
