<svg width="40" height="41" viewBox="0 0 40 41" fill="none" xmlns="http://www.w3.org/2000/svg">
<g clip-path="url(#clip0_458_1009)">
<g clip-path="url(#clip1_458_1009)">
<g clip-path="url(#clip2_458_1009)">
<path d="M2.50001 3.33166C-0.643327 6.59666 6.57141e-06 10.065 6.57141e-06 20.6017C6.57141e-06 29.3517 -1.52666 38.1233 6.46334 40.1883C8.95834 40.83 31.065 40.83 33.5567 40.185C36.8833 39.3267 39.59 36.6283 39.96 31.9233C40.0117 31.2667 40.0117 9.94833 39.9583 9.27833C39.565 4.26666 36.48 1.37833 32.415 0.79333C31.4833 0.65833 31.2967 0.61833 26.5167 0.609997C9.56167 0.61833 5.84501 -0.13667 2.50001 3.33166Z" fill="url(#paint0_linear_458_1009)"/>
<path d="M19.9967 5.84167C13.945 5.84167 8.19835 5.30334 6.00335 10.9367C5.09668 13.2633 5.22835 16.285 5.22835 20.6117C5.22835 24.4083 5.10668 27.9767 6.00335 30.285C8.19335 35.9217 13.9867 35.3817 19.9933 35.3817C25.7883 35.3817 31.7634 35.985 33.985 30.285C34.8934 27.935 34.76 24.9583 34.76 20.6117C34.76 14.8417 35.0784 11.1167 32.28 8.32C29.4467 5.48667 25.615 5.84167 19.99 5.84167H19.9967ZM18.6733 8.50334C31.2967 8.48334 32.9033 7.08 32.0167 26.575C31.7017 33.47 26.4517 32.7133 19.9983 32.7133C8.23168 32.7133 7.89335 32.3767 7.89335 20.605C7.89335 8.69667 8.82668 8.51 18.6733 8.5V8.50334ZM27.88 10.955C26.9017 10.955 26.1083 11.7483 26.1083 12.7267C26.1083 13.705 26.9017 14.4983 27.88 14.4983C28.8583 14.4983 29.6517 13.705 29.6517 12.7267C29.6517 11.7483 28.8583 10.955 27.88 10.955ZM19.9967 13.0267C15.8083 13.0267 12.4133 16.4233 12.4133 20.6117C12.4133 24.8 15.8083 28.195 19.9967 28.195C24.185 28.195 27.5784 24.8 27.5784 20.6117C27.5784 16.4233 24.185 13.0267 19.9967 13.0267ZM19.9967 15.6883C26.505 15.6883 26.5133 25.535 19.9967 25.535C13.49 25.535 13.48 15.6883 19.9967 15.6883Z" fill="white"/>
</g>
</g>
</g>
<defs>
<linearGradient id="paint0_linear_458_1009" x1="2.57671" y1="38.0552" x2="39.7525" y2="5.87996" gradientUnits="userSpaceOnUse">
<stop stop-color="#FFDD55"/>
<stop offset="0.5" stop-color="#FF543E"/>
<stop offset="1" stop-color="#C837AB"/>
</linearGradient>
<clipPath id="clip0_458_1009">
<rect y="0.610001" width="40" height="40" rx="20" fill="white"/>
</clipPath>
<clipPath id="clip1_458_1009">
<rect width="40" height="40" fill="white" transform="translate(0 0.610001)"/>
</clipPath>
<clipPath id="clip2_458_1009">
<rect width="40" height="40" fill="white" transform="translate(0 0.610001)"/>
</clipPath>
</defs>
</svg>
