<svg width="40" height="41" viewBox="0 0 40 41" fill="none" xmlns="http://www.w3.org/2000/svg">
<g clip-path="url(#clip0_458_526)">
<g clip-path="url(#clip1_458_526)">
<g clip-path="url(#clip2_458_526)">
<path d="M19.9999 40.61C31.0454 40.61 39.9995 31.6559 39.9995 20.6104C39.9995 9.56486 31.0454 0.610714 19.9999 0.610714C8.95439 0.610714 0.000244141 9.56486 0.000244141 20.6104C0.000244141 31.6559 8.95439 40.61 19.9999 40.61Z" fill="#CB2027"/>
<path d="M21.6143 27.3919C20.1023 27.275 19.467 26.5253 18.2812 25.8055C17.6295 29.2248 16.8331 32.5026 14.474 34.2149C13.745 29.0469 15.5429 25.1652 16.3778 21.0449C14.9546 18.6492 16.5489 13.827 19.5508 15.0153C23.2453 16.4762 16.3521 23.9234 20.9797 24.8536C25.8108 25.8247 27.783 16.4709 24.7869 13.4284C20.4581 9.03582 12.1867 13.3286 13.2038 19.6168C13.4516 21.154 15.0402 21.6207 13.8384 23.742C11.0679 23.1284 10.2415 20.9433 10.3478 18.0303C10.5192 13.2619 14.6323 9.92318 18.7579 9.46114C23.9755 8.87717 28.8725 11.377 29.5485 16.2848C30.3089 21.8239 27.193 27.8226 21.6143 27.3919Z" fill="#F1F2F2"/>
</g>
</g>
</g>
<defs>
<clipPath id="clip0_458_526">
<rect y="0.610001" width="40" height="40" rx="20" fill="white"/>
</clipPath>
<clipPath id="clip1_458_526">
<rect width="40" height="40" fill="white" transform="translate(0 0.610001)"/>
</clipPath>
<clipPath id="clip2_458_526">
<rect width="40" height="40" fill="white" transform="translate(0 0.610001)"/>
</clipPath>
</defs>
</svg>
