<svg width="40" height="41" viewBox="0 0 40 41" fill="none" xmlns="http://www.w3.org/2000/svg">
<g clip-path="url(#clip0_458_772)">
<g clip-path="url(#clip1_458_772)">
<g clip-path="url(#clip2_458_772)">
<path d="M40 8.1975C38.5125 8.85 36.9275 9.2825 35.275 9.4925C36.975 8.4775 38.2725 6.8825 38.8825 4.96C37.2975 5.905 35.5475 6.5725 33.6825 6.945C32.1775 5.3425 30.0325 4.35 27.6925 4.35C23.1525 4.35 19.4975 8.035 19.4975 12.5525C19.4975 13.2025 19.5525 13.8275 19.6875 14.4225C12.87 14.09 6.8375 10.8225 2.785 5.845C2.0775 7.0725 1.6625 8.4775 1.6625 9.99C1.6625 12.83 3.125 15.3475 5.305 16.805C3.9875 16.78 2.695 16.3975 1.6 15.795C1.6 15.82 1.6 15.8525 1.6 15.885C1.6 19.87 4.4425 23.18 8.17 23.9425C7.5025 24.125 6.775 24.2125 6.02 24.2125C5.495 24.2125 4.965 24.1825 4.4675 24.0725C5.53 27.32 8.545 29.7075 12.13 29.785C9.34 31.9675 5.7975 33.2825 1.9625 33.2825C1.29 33.2825 0.645 33.2525 0 33.17C3.6325 35.5125 7.9375 36.85 12.58 36.85C27.67 36.85 35.92 24.35 35.92 13.515C35.92 13.1525 35.9075 12.8025 35.89 12.455C37.5175 11.3 38.885 9.8575 40 8.1975Z" fill="#1456A3"/>
</g>
</g>
</g>
<defs>
<clipPath id="clip0_458_772">
<rect y="0.599998" width="40" height="40" rx="20" fill="white"/>
</clipPath>
<clipPath id="clip1_458_772">
<rect width="40" height="40" fill="white" transform="translate(0 0.599998)"/>
</clipPath>
<clipPath id="clip2_458_772">
<rect width="40" height="40" fill="white" transform="translate(0 0.599998)"/>
</clipPath>
</defs>
</svg>
