<svg width="40" height="41" viewBox="0 0 40 41" fill="none" xmlns="http://www.w3.org/2000/svg">
<g clip-path="url(#clip0_458_968)">
<g clip-path="url(#clip1_458_968)">
<path d="M39.1759 11.008C38.7147 9.29444 37.3637 7.94374 35.6505 7.48231C32.5203 6.62569 19.9996 6.62569 19.9996 6.62569C19.9996 6.62569 7.47922 6.62569 4.34904 7.44966C2.66875 7.91078 1.28478 9.29474 0.823666 11.008C0 14.1379 0 20.6289 0 20.6289C0 20.6289 0 27.1526 0.823666 30.2499C1.28509 31.9631 2.63579 33.3141 4.34935 33.7755C7.51218 34.6322 19.9999 34.6322 19.9999 34.6322C19.9999 34.6322 32.5203 34.6322 35.6505 33.8082C37.364 33.3471 38.7147 31.9961 39.1762 30.2828C39.9998 27.1526 39.9998 20.6619 39.9998 20.6619C39.9998 20.6619 40.0328 14.1379 39.1759 11.008Z" fill="#FF0000"/>
<path d="M16.0132 26.6256L26.4248 20.6289L16.0132 14.6322V26.6256Z" fill="white"/>
</g>
</g>
<defs>
<clipPath id="clip0_458_968">
<rect width="40" height="40" fill="white" transform="translate(0 0.610001)"/>
</clipPath>
<clipPath id="clip1_458_968">
<rect width="40" height="40" fill="white" transform="translate(0 0.610001)"/>
</clipPath>
</defs>
</svg>
